<svg width="50" height="50" viewBox="0 0 50 50" fill="none" xmlns="http://www.w3.org/2000/svg">
<path fill-rule="evenodd" clip-rule="evenodd" d="M50 6.25C50 2.80049 47.1995 0 43.75 0H6.25C2.80049 0 0 2.80049 0 6.25V43.75C0 47.1995 2.80049 50 6.25 50H43.75C47.1995 50 50 47.1995 50 43.75V6.25Z" fill="#2867B2"/>
<path d="M14.332 17.4479H5.95703V42.6395H14.332V17.4479Z" fill="white"/>
<path d="M10.2062 5.30072C7.34092 5.30072 5.46875 7.18451 5.46875 9.65355C5.46875 12.0707 7.28398 14.0065 10.0954 14.0065H10.1495C13.0697 14.0065 14.8874 12.0707 14.8874 9.65355C14.8332 7.18451 13.0699 5.30072 10.2062 5.30072V5.30072Z" fill="white"/>
<path d="M34.8891 16.8554C30.4467 16.8554 28.4568 19.2985 27.3426 21.0145V17.4478H18.9697C19.0808 19.8108 18.9697 42.6393 18.9697 42.6393H27.3425V28.5706C27.3425 27.8175 27.3966 27.0647 27.6186 26.5265C28.2229 25.0226 29.6015 23.4648 31.9147 23.4648C34.9433 23.4648 36.1565 25.7758 36.1565 29.1608V42.6393H44.5297V28.193C44.5297 20.455 40.3983 16.8554 34.8891 16.8554V16.8554Z" fill="white"/>
</svg>
